<?xml version="1.0" standalone="no"?>
<!DOCTYPE svg PUBLIC "-//W3C//DTD SVG 20010904//EN"
 "http://www.w3.org/TR/2001/REC-SVG-20010904/DTD/svg10.dtd">
<svg version="1.0" xmlns="http://www.w3.org/2000/svg"
 width="128.000000pt" height="128.000000pt" viewBox="0 0 128.000000 128.000000"
 preserveAspectRatio="xMidYMid meet">

<g transform="translate(0.000000,128.000000) scale(0.100000,-0.100000)"
fill="#000000" stroke="none">
<path d="M513 1185 c-92 -20 -196 -79 -269 -152 -217 -217 -216 -569 2 -787
270 -271 725 -196 894 147 208 422 -164 893 -627 792z m450 -306 c43 -12 101
-59 122 -99 39 -75 26 -167 -31 -230 -36 -39 -103 -70 -155 -70 -23 0 -28 -5
-34 -37 -3 -20 -19 -49 -35 -65 l-28 -28 -247 0 -246 0 -24 25 -25 24 0 239
c0 131 3 242 7 245 11 12 654 8 696 -4z"/>
<path d="M870 680 l0 -100 25 0 c34 0 82 25 95 49 5 11 10 38 10 61 0 56 -34
90 -90 90 l-40 0 0 -100z"/>
<path d="M413 734 c-22 -22 -25 -32 -20 -71 4 -41 13 -54 83 -124 43 -44 82
-79 87 -79 13 0 117 101 148 144 38 51 37 89 0 127 -34 34 -72 38 -116 11 -29
-18 -31 -18 -60 0 -44 26 -91 23 -122 -8z"/>
</g>
</svg>
